<svg width="901" height="217" viewBox="0 0 901 217" fill="none" xmlns="http://www.w3.org/2000/svg">
<g clip-path="url(#clip0_22_32)">
<path d="M564.144 175.639C564.511 176.246 565.459 177.013 566.502 177.558L568.248 178.454L591.409 178.499L614.567 178.544L616.319 177.655C620.34 175.621 620.411 171.282 616.428 169.17L614.926 168.337L591.429 168.292L567.931 168.246L566.426 169.073C563.663 170.534 562.708 173.307 564.144 175.639Z" fill="white"/>
<path d="M564.411 54.1983C564.808 54.8055 565.79 55.6355 566.646 56.0855L568.148 56.9181L591.645 56.9638L615.142 57.0095L616.647 56.1827C620.639 54.0843 620.587 49.7465 616.571 47.6977L614.824 46.801L591.665 46.756L568.506 46.711L566.757 47.6009C563.87 49.0607 562.881 51.8333 564.411 54.1983Z" fill="white"/>
<path d="M571.755 189.849C572.09 190.487 572.857 191.351 573.499 191.766L574.664 192.502L591.381 192.535L608.099 192.567L609.267 191.803C612.338 189.832 612.408 185.366 609.376 183.032C608.55 182.36 608.243 182.36 591.403 182.327C574.563 182.294 574.255 182.294 573.426 182.962C571.243 184.617 570.532 187.55 571.755 189.849Z" fill="white"/>
<path d="M571.861 40.0176C572.41 41.3261 573.972 42.6691 575.199 42.8948C575.751 42.992 583.512 43.0707 592.5 43.0246C608.42 42.9594 608.818 42.9602 609.649 42.2918C612.66 40.0008 612.637 35.5032 609.634 33.551C608.531 32.8479 608.531 32.8479 591.722 32.8152L574.882 32.7499L573.777 33.4813C571.749 34.7537 570.884 37.7189 571.861 40.0176Z" fill="white"/>
<path d="M591.283 164.304L594.197 164.31L594.295 113.75L594.393 63.1897L591.479 63.1841L588.565 63.1784L588.467 113.737L588.369 164.298L591.283 164.304Z" fill="white"/>
</g>
<path d="M42.372 113.944C42.372 126.499 43.5847 135.487 46.01 140.908C48.578 146.187 52.7153 148.826 58.422 148.826C64.1287 148.826 72.1893 147.471 82.604 144.76L88.168 174.934C76.8973 179.071 65.5553 181.14 54.142 181.14C37.022 181.14 24.5387 175.505 16.692 164.234C8.988 152.821 5.136 135.915 5.136 113.516C5.136 90.9747 9.202 73.7833 17.334 61.942C25.466 49.958 38.734 43.966 57.138 43.966C67.9807 43.966 78.324 46.2487 88.168 50.814L82.39 83.984C71.262 80.2747 63.4867 78.42 59.064 78.42C52.7867 78.42 48.4353 81.202 46.01 86.766C43.5847 92.1873 42.372 101.247 42.372 113.944ZM164.813 179H97.1894V46.106H133.783V149.254H166.953L164.813 179ZM213.243 179H176.863V46.106H213.243V179ZM267.239 113.944C267.239 126.499 268.452 135.487 270.877 140.908C273.445 146.187 277.583 148.826 283.289 148.826C288.996 148.826 297.057 147.471 307.471 144.76L313.035 174.934C301.765 179.071 290.423 181.14 279.009 181.14C261.889 181.14 249.406 175.505 241.559 164.234C233.855 152.821 230.003 135.915 230.003 113.516C230.003 90.9747 234.069 73.7833 242.201 61.942C250.333 49.958 263.601 43.966 282.005 43.966C292.848 43.966 303.191 46.2487 313.035 50.814L307.257 83.984C296.129 80.2747 288.354 78.42 283.931 78.42C277.654 78.42 273.303 81.202 270.877 86.766C268.452 92.1873 267.239 101.247 267.239 113.944ZM416.217 179H375.771L359.721 128.924H357.581V179H322.057V46.106H357.581V101.746H359.721L378.981 46.106H418.357L392.463 114.8L416.217 179ZM542.758 78.848H507.448V98.75H535.91V126.998H507.448V179H470.854V46.106H544.898L542.758 78.848ZM720.311 78.42H695.487V179H658.893V78.42H632.571L634.711 46.106H722.451L720.311 78.42Z" fill="white"/>
<path d="M106.36 194.704H102.73V196.75H105.656V199.654H102.73V205H98.968V191.338H106.58L106.36 194.704ZM110.843 205H107.213V194.572H110.843V205ZM107.499 193.736C107.191 193.472 107.037 193.047 107.037 192.46C107.037 191.873 107.191 191.441 107.499 191.162C107.807 190.883 108.313 190.744 109.017 190.744C109.721 190.744 110.227 190.883 110.535 191.162C110.843 191.441 110.997 191.873 110.997 192.46C110.997 193.032 110.843 193.457 110.535 193.736C110.227 194 109.721 194.132 109.017 194.132C108.313 194.132 107.807 194 107.499 193.736ZM118.178 205.022C117.093 205.154 116.147 205.22 115.34 205.22C114.548 205.22 113.925 205.015 113.47 204.604C113.03 204.179 112.81 203.453 112.81 202.426V197.322H111.754V194.594H112.986L113.184 192.57H116.506V194.594H118.464L118.31 197.322H116.484V201.7C116.484 202.008 116.631 202.162 116.924 202.162C116.953 202.162 117.408 202.14 118.288 202.096L118.178 205.022ZM122.895 195.232C123.701 194.543 124.589 194.198 125.557 194.198C126.525 194.198 127.199 194.425 127.581 194.88C127.977 195.32 128.175 195.987 128.175 196.882V205H124.435V198.136C124.435 197.769 124.273 197.586 123.951 197.586C123.54 197.586 123.195 197.689 122.917 197.894V205H119.221V194.462H122.587L122.807 195.232H122.895ZM133.89 197.344C133.509 197.344 133.259 197.476 133.142 197.74C133.025 197.989 132.966 198.378 132.966 198.906H134.88V198.378C134.88 197.689 134.55 197.344 133.89 197.344ZM133.978 194.198C135.489 194.198 136.567 194.565 137.212 195.298C137.872 196.017 138.202 197.051 138.202 198.4C138.202 198.576 138.151 199.368 138.048 200.776H133.032C133.032 201.876 133.538 202.426 134.55 202.426C135.034 202.426 135.98 202.257 137.388 201.92L137.696 204.648C136.464 205.029 135.232 205.22 134 205.22C132.489 205.22 131.331 204.729 130.524 203.746C129.717 202.749 129.314 201.399 129.314 199.698C129.314 196.031 130.869 194.198 133.978 194.198ZM138.651 197.586C138.651 196.515 138.973 195.687 139.619 195.1C140.279 194.499 141.181 194.198 142.325 194.198C143.469 194.198 144.627 194.345 145.801 194.638L145.427 197.696C143.931 197.359 142.926 197.19 142.413 197.19C142.105 197.19 141.951 197.315 141.951 197.564C141.951 197.725 142.119 197.872 142.457 198.004C143.63 198.429 144.51 198.913 145.097 199.456C145.698 199.999 145.999 200.813 145.999 201.898C145.999 202.983 145.72 203.812 145.163 204.384C144.605 204.941 143.747 205.22 142.589 205.22C141.445 205.22 140.301 205.073 139.157 204.78L139.399 201.81C140.865 202.206 141.811 202.404 142.237 202.404C142.677 202.404 142.897 202.301 142.897 202.096C142.897 201.891 142.735 201.729 142.413 201.612C141.107 201.113 140.154 200.585 139.553 200.028C138.951 199.456 138.651 198.642 138.651 197.586ZM146.17 197.586C146.17 196.515 146.493 195.687 147.138 195.1C147.798 194.499 148.7 194.198 149.844 194.198C150.988 194.198 152.147 194.345 153.32 194.638L152.946 197.696C151.45 197.359 150.445 197.19 149.932 197.19C149.624 197.19 149.47 197.315 149.47 197.564C149.47 197.725 149.639 197.872 149.976 198.004C151.149 198.429 152.029 198.913 152.616 199.456C153.217 199.999 153.518 200.813 153.518 201.898C153.518 202.983 153.239 203.812 152.682 204.384C152.125 204.941 151.267 205.22 150.108 205.22C148.964 205.22 147.82 205.073 146.676 204.78L146.918 201.81C148.385 202.206 149.331 202.404 149.756 202.404C150.196 202.404 150.416 202.301 150.416 202.096C150.416 201.891 150.255 201.729 149.932 201.612C148.627 201.113 147.673 200.585 147.072 200.028C146.471 199.456 146.17 198.642 146.17 197.586ZM162.599 205H158.969V194.572H162.599V205ZM159.255 193.736C158.947 193.472 158.793 193.047 158.793 192.46C158.793 191.873 158.947 191.441 159.255 191.162C159.563 190.883 160.069 190.744 160.773 190.744C161.477 190.744 161.983 190.883 162.291 191.162C162.599 191.441 162.753 191.873 162.753 192.46C162.753 193.032 162.599 193.457 162.291 193.736C161.983 194 161.477 194.132 160.773 194.132C160.069 194.132 159.563 194 159.255 193.736ZM167.668 195.232C168.475 194.543 169.362 194.198 170.33 194.198C171.298 194.198 171.973 194.425 172.354 194.88C172.75 195.32 172.948 195.987 172.948 196.882V205H169.208V198.136C169.208 197.769 169.047 197.586 168.724 197.586C168.313 197.586 167.969 197.689 167.69 197.894V205H163.994V194.462H167.36L167.58 195.232H167.668ZM178.311 197.586C178.311 196.515 178.633 195.687 179.279 195.1C179.939 194.499 180.841 194.198 181.985 194.198C183.129 194.198 184.287 194.345 185.461 194.638L185.087 197.696C183.591 197.359 182.586 197.19 182.073 197.19C181.765 197.19 181.611 197.315 181.611 197.564C181.611 197.725 181.779 197.872 182.117 198.004C183.29 198.429 184.17 198.913 184.757 199.456C185.358 199.999 185.659 200.813 185.659 201.898C185.659 202.983 185.38 203.812 184.823 204.384C184.265 204.941 183.407 205.22 182.249 205.22C181.105 205.22 179.961 205.073 178.817 204.78L179.059 201.81C180.525 202.206 181.471 202.404 181.897 202.404C182.337 202.404 182.557 202.301 182.557 202.096C182.557 201.891 182.395 201.729 182.073 201.612C180.767 201.113 179.814 200.585 179.213 200.028C178.611 199.456 178.311 198.642 178.311 197.586ZM192.342 205.022C191.257 205.154 190.311 205.22 189.504 205.22C188.712 205.22 188.089 205.015 187.634 204.604C187.194 204.179 186.974 203.453 186.974 202.426V197.322H185.918V194.594H187.15L187.348 192.57H190.67V194.594H192.628L192.474 197.322H190.648V201.7C190.648 202.008 190.795 202.162 191.088 202.162C191.118 202.162 191.572 202.14 192.452 202.096L192.342 205.022ZM202.515 194.462L199.787 205.308C199.508 206.393 199.097 207.149 198.555 207.574C198.012 208.014 197.125 208.234 195.893 208.234H193.693L193.363 205.396H194.595C195.093 205.396 195.343 205.198 195.343 204.802C195.343 204.714 195.313 204.523 195.255 204.23L192.725 194.462H196.641L197.631 201.04H197.829L198.907 194.462H202.515ZM203.181 202.58V190.898H206.811V201.414C206.811 201.663 206.863 201.839 206.965 201.942C207.083 202.045 207.281 202.096 207.559 202.096L207.273 205.22H206.063C205.095 205.22 204.369 205.022 203.885 204.626C203.416 204.215 203.181 203.533 203.181 202.58ZM212.716 197.344C212.335 197.344 212.086 197.476 211.968 197.74C211.851 197.989 211.792 198.378 211.792 198.906H213.706V198.378C213.706 197.689 213.376 197.344 212.716 197.344ZM212.804 194.198C214.315 194.198 215.393 194.565 216.038 195.298C216.698 196.017 217.028 197.051 217.028 198.4C217.028 198.576 216.977 199.368 216.874 200.776H211.858C211.858 201.876 212.364 202.426 213.376 202.426C213.86 202.426 214.806 202.257 216.214 201.92L216.522 204.648C215.29 205.029 214.058 205.22 212.826 205.22C211.316 205.22 210.157 204.729 209.35 203.746C208.544 202.749 208.14 201.399 208.14 199.698C208.14 196.031 209.695 194.198 212.804 194.198Z" fill="white"/>
<defs>
<clipPath id="clip0_22_32">
<rect width="163.013" height="156.754" fill="white" transform="translate(513 194.013) rotate(-89.8886)"/>
</clipPath>
</defs>
</svg>
